HIERARCHY
ROOT Hips
{
	OFFSET 0.00 0.00 0.00
	CHANNELS 6 Xposition Yposition Zposition Xrotation Yrotation Zrotation
	JOINT LeftUpLeg
	{
		OFFSET 3.29906 0.00000 0.00000
		CHANNELS 3 Xrotation Yrotation Zrotation
		JOINT LeftLeg
		{
			OFFSET 0.00000 -16.90256 0.00000
			CHANNELS 3 Xrotation Yrotation Zrotation
			JOINT LeftFoot
			{
				OFFSET 0.00000 -16.69398 0.00000
				CHANNELS 3 Xrotation Yrotation Zrotation
				JOINT LeftToeBase
				{
					OFFSET 0.00000 -1.46932 5.48360
					CHANNELS 3 Xrotation Yrotation Zrotation
					End Site
					{
						OFFSET 0.00000 0.00000 2.95275
					}
				}
			}
		}
	}
	JOINT RightUpLeg
	{
		OFFSET -3.29906 0.00000 0.00000
		CHANNELS 3 Xrotation Yrotation Zrotation
		JOINT RightLeg
		{
			OFFSET 0.00000 -16.90256 0.00000
			CHANNELS 3 Xrotation Yrotation Zrotation
			JOINT RightFoot
			{
				OFFSET 0.00000 -16.69398 0.00000
				CHANNELS 3 Xrotation Yrotation Zrotation
				JOINT RightToeBase
				{
					OFFSET 0.00000 -1.46932 5.48360
					CHANNELS 3 Xrotation Yrotation Zrotation
					End Site
					{
						OFFSET 0.00000 0.00000 2.95275
					}
				}
			}
		}
	}
	JOINT Spine
	{
		OFFSET 0.00000 0.03937 0.00000
		CHANNELS 3 Xrotation Yrotation Zrotation
		JOINT Spine1
		{
			OFFSET 0.00000 7.07715 0.00000
			CHANNELS 3 Xrotation Yrotation Zrotation
			JOINT Neck
			{
				OFFSET 0.00000 9.58345 0.00000
				CHANNELS 3 Xrotation Yrotation Zrotation
				JOINT Head
				{
					OFFSET 0.00000 6.23786 0.00000
					CHANNELS 3 Xrotation Yrotation Zrotation
					End Site
					{
						OFFSET 0.00000 4.52755 0.00000
					}
				}
			}
			JOINT LeftShoulder
			{
				OFFSET 0.00000 9.58345 0.00000
				CHANNELS 3 Xrotation Yrotation Zrotation
				JOINT LeftArm
				{
					OFFSET 7.67467 -0.00003 0.00000
					CHANNELS 3 Xrotation Yrotation Zrotation
					JOINT LeftForeArm
					{
						OFFSET 12.04206 -0.00004 0.00000
						CHANNELS 3 Xrotation Yrotation Zrotation
						JOINT LeftHand
						{
							OFFSET 9.71053 -0.00004 0.00000
							CHANNELS 3 Xrotation Yrotation Zrotation
							JOINT LeftHandThumb
							{
								OFFSET 0.00000 0.00000 0.00000
								CHANNELS 3 Xrotation Yrotation Zrotation
								End Site
								{
									OFFSET 0.00000 0.00000 3.93700
								}
							}
							JOINT L_Wrist_End
							{
								OFFSET 3.93700 -0.00001 0.00000
								CHANNELS 3 Xrotation Yrotation Zrotation
							}
						}
					}
				}
			}
			JOINT RightShoulder
			{
				OFFSET 0.00000 9.58345 0.00000
				CHANNELS 3 Xrotation Yrotation Zrotation
				JOINT RightArm
				{
					OFFSET -7.67467 -0.00003 0.00000
					CHANNELS 3 Xrotation Yrotation Zrotation
					JOINT RightForeArm
					{
						OFFSET -12.04206 -0.00004 0.00000
						CHANNELS 3 Xrotation Yrotation Zrotation
						JOINT RightHand
						{
							OFFSET -9.71053 -0.00004 0.00000
							CHANNELS 3 Xrotation Yrotation Zrotation
							JOINT RightHandThumb
							{
								OFFSET 0.00000 0.00000 0.00000
								CHANNELS 3 Xrotation Yrotation Zrotation
								End Site
								{
									OFFSET 0.00000 0.00000 3.93700
								}
							}
							JOINT R_Wrist_End
							{
								OFFSET -5.39369 -0.00002 0.00000
								CHANNELS 3 Xrotation Yrotation Zrotation
							}
						}
					}
				}
			}
		}
	}
}
MOTION
Frames: 14
Frame Time: 0.008333
 -90.4207 34.9220 -6.1330 29.6343 82.7655 -32.7953 0.7391 10.1793 8.9314 12.1234 -0.0000 0.0000 -9.8382 -8.4372 4.6312 -13.1143 0.0000 0.0000 -1.1152 -2.6346 -4.4741 10.8133 -0.0000 0.0000 -18.5601 -2.5904 16.8460 -9.8837 0.0000 0.0000 -2.6793 1.5688 0.8086 9.6978 -2.8186 0.3824 -9.7237 16.8713 2.5129 -10.4742 -5.4462 -3.1817 20.0814 25.8107 8.4254 -14.1816 -6.2734 -97.4743 -0.0001 -25.2038 -0.0000 -13.0464 -7.1273 -16.7162 -0.0000 -0.0000 -0.0000 -0.0000 -0.0000 -0.0000 22.1520 -18.2836 -6.4169 -28.1678 20.7866 89.6203 -0.0001 19.6840 0.0000 -13.2438 5.1113 12.4038 -0.0000 0.0000 -0.0000 -0.0000 0.0000 -0.0000
 -90.2937 34.9029 -6.1363 31.2562 82.8215 -34.4968 0.7500 10.0089 8.9801 12.2186 0.0000 0.0000 -10.0674 -8.3217 4.7936 -13.1022 0.0000 0.0000 -0.8682 -2.6893 -4.3948 10.5254 0.0000 -0.0000 -18.5221 -2.7582 16.9530 -9.8053 0.0000 0.0000 -2.6611 1.6078 0.7757 9.7140 -2.7814 0.3666 -9.4204 16.9238 2.4962 -11.0558 -5.4924 -3.3030 20.2365 25.8440 8.3792 -14.0498 -7.2025 -97.7517 -0.0001 -25.3566 -0.0000 -12.2275 -7.1031 -16.7982 -0.0000 0.0000 -0.0000 -0.0000 0.0000 -0.0000 22.1447 -18.2278 -6.3140 -28.2622 21.9308 90.7501 -0.0001 20.4921 0.0000 -13.1298 3.7697 11.9187 0.0000 -0.0000 -0.0000 0.0000 -0.0000 -0.0000
 -90.1656 34.8813 -6.1755 32.0893 82.6779 -35.3851 0.8063 9.7822 8.9105 12.3266 0.0000 -0.0000 -10.3494 -7.9738 5.0336 -13.0721 -0.0000 -0.0000 -0.7122 -2.7065 -4.4308 10.2763 -0.0000 -0.0000 -18.5516 -2.7160 17.1161 -9.3375 -0.0000 -0.0000 -2.6527 1.7042 0.7920 9.7327 -2.6815 0.3689 -9.1790 16.9702 2.3884 -11.5015 -5.4647 -3.3418 20.4051 25.9553 8.2465 -13.8799 -8.1937 -97.9660 -0.0001 -25.5021 -0.0000 -12.3010 -7.6419 -16.2160 -0.0000 0.0000 -0.0000 -0.0000 0.0000 -0.0000 22.0279 -18.0905 -6.3964 -28.3961 23.0228 91.8081 -0.0001 21.2398 0.0000 -13.9284 2.7557 11.4024 -0.0000 0.0000 0.0000 -0.0000 0.0000 0.0000
 -90.0391 34.8596 -6.2124 32.9841 82.6142 -36.3235 0.8205 9.4594 8.8506 12.5831 0.0000 0.0000 -10.7446 -7.6298 5.3392 -13.1201 0.0000 0.0000 -0.5382 -2.7220 -4.4555 10.0873 -0.0000 0.0000 -18.6131 -2.7436 17.2472 -9.0741 0.0000 0.0000 -2.5866 1.8065 0.7781 9.7675 -2.5788 0.3611 -9.1729 16.9772 2.3737 -11.6520 -5.4488 -3.3652 20.5457 26.0675 8.1866 -13.7061 -8.3494 -98.1412 -0.0001 -25.6236 -0.0000 -11.6817 -8.2160 -16.4756 0.0000 -0.0000 -0.0000 0.0000 -0.0000 -0.0000 22.0902 -17.9237 -6.3751 -28.5998 23.5539 92.7524 -0.0001 22.2645 0.0000 -13.2230 2.0177 11.3339 -0.0000 0.0000 -0.0000 -0.0000 0.0000 -0.0000
 -89.8818 34.8371 -6.2679 34.3847 82.4878 -37.7733 0.9556 9.0668 8.7160 12.5522 0.0000 -0.0000 -10.9043 -7.1711 5.5596 -13.0622 -0.0000 -0.0000 -0.3223 -2.8623 -4.5346 9.6710 0.0000 0.0000 -18.3723 -2.5963 17.3379 -9.4476 0.0000 -0.0000 -2.6824 1.8305 0.8526 9.7758 -2.5555 0.3618 -8.8001 17.0223 2.0908 -12.1549 -5.3928 -3.2230 20.8101 26.1408 7.9546 -13.4246 -9.0284 -98.0589 -0.0001 -25.9533 -0.0000 -11.6046 -9.2148 -14.9261 0.0000 0.0000 0.0000 0.0000 0.0000 0.0000 21.6090 -17.8319 -6.5959 -28.6157 25.5744 93.6308 -0.0001 22.8683 0.0000 -14.5294 2.5284 10.4943 -0.0000 0.0000 -0.0000 -0.0000 0.0000 -0.0000
 -89.7373 34.8117 -6.3139 35.7065 82.4155 -39.1201 1.0238 8.7778 8.6105 12.6300 -0.0000 0.0000 -11.1597 -6.8683 5.8051 -13.0232 0.0000 0.0000 -0.1167 -2.9469 -4.5874 9.3472 -0.0000 0.0000 -18.3031 -2.5783 17.2339 -9.0011 0.0000 0.0000 -2.7005 1.8797 0.8540 9.8151 -2.5090 0.3456 -8.6066 17.0649 1.9577 -12.5184 -5.3847 -3.1467 21.0059 26.2172 7.8408 -13.1748 -9.3366 -97.9347 -0.0001 -26.3344 -0.0000 -11.1285 -9.7807 -13.5923 -0.0000 0.0000 -0.0000 -0.0000 0.0000 -0.0000 21.3838 -17.7126 -6.6846 -28.7748 27.0243 94.4328 -0.0001 23.8283 0.0000 -14.5693 2.2047 9.7967 -0.0000 0.0000 -0.0000 -0.0000 0.0000 -0.0000
 -89.5902 34.7855 -6.3635 37.1264 82.3294 -40.5423 1.0846 8.4572 8.4768 12.7115 0.0000 0.0000 -11.3856 -6.5385 6.0698 -13.0168 -0.0000 0.0000 0.0605 -2.9660 -4.6703 9.0489 0.0000 0.0000 -18.1349 -2.5472 17.1180 -9.0415 0.0000 -0.0000 -2.7814 1.9363 0.8869 9.9285 -2.4747 0.2746 -8.4772 17.0940 1.8221 -12.7991 -5.3751 -3.0594 21.1602 26.2390 7.7338 -12.8792 -9.4567 -97.6769 -0.0001 -26.7999 -0.0000 -10.7484 -10.0505 -12.5520 0.0000 0.0000 -0.0000 0.0000 0.0000 -0.0000 21.0452 -17.8312 -7.0978 -30.4864 30.1935 95.8692 -0.0001 22.3936 0.0000 -14.7935 5.8171 9.8304 -0.0000 0.0000 -0.0000 -0.0000 0.0000 -0.0000
 -89.4359 34.7573 -6.4111 38.6989 82.2765 -42.1615 1.1478 8.1617 8.4040 12.7830 0.0000 0.0000 -11.6204 -6.2534 6.3118 -13.0123 0.0000 0.0000 0.2752 -2.8950 -4.6909 8.7580 -0.0000 -0.0000 -17.9769 -2.6424 16.9704 -9.1223 0.0000 0.0000 -2.8463 1.9610 0.8991 10.0165 -2.4514 0.2618 -8.2672 17.1502 1.7034 -13.2083 -5.3742 -2.9819 21.2824 26.2885 7.6389 -12.5757 -9.4639 -97.3436 -0.0001 -27.2269 -0.0000 -10.2534 -10.0744 -11.8926 -0.0000 0.0000 0.0000 -0.0000 0.0000 0.0000 20.8382 -17.7302 -7.1102 -31.0484 32.0693 96.5457 -0.0001 23.1081 0.0000 -12.9480 7.4790 9.4569 -0.0000 0.0000 0.0000 -0.0000 0.0000 0.0000
 -89.2810 34.7235 -6.4630 40.2576 82.2314 -43.7350 1.2113 7.8920 8.3002 12.8755 -0.0000 0.0000 -11.8623 -5.9749 6.5310 -13.0536 -0.0000 -0.0000 0.5063 -2.9104 -4.7540 8.4423 0.0000 -0.0000 -17.8713 -2.6971 16.8584 -9.1663 -0.0000 0.0000 -2.8703 1.9828 0.8899 10.0595 -2.4371 0.2325 -7.9853 17.2159 1.5704 -13.7067 -5.3855 -2.8856 21.3737 26.3178 7.5667 -12.2518 -9.5583 -96.9066 -0.0001 -27.7293 -0.0000 -9.6193 -9.8112 -11.2905 -0.0000 0.0000 -0.0000 -0.0000 0.0000 -0.0000 20.6414 -17.6081 -7.1640 -31.2415 33.5822 97.0496 -0.0001 24.5016 0.0000 -11.4031 6.9073 9.0485 0.0000 0.0000 0.0000 0.0000 0.0000 0.0000
 -89.1226 34.6894 -6.5179 41.7527 82.1595 -45.2642 1.2901 7.6320 8.2064 12.9299 -0.0000 0.0000 -12.1186 -5.6786 6.6810 -13.0129 -0.0000 -0.0000 0.7097 -2.7203 -4.8046 8.1999 -0.0000 0.0000 -17.7194 -2.8648 16.7506 -9.2306 -0.0000 -0.0000 -2.9147 2.0328 0.8986 10.1336 -2.3915 0.2102 -7.8020 17.2428 1.5236 -14.0827 -5.4096 -2.9072 21.4287 26.3478 7.4913 -11.9844 -9.9136 -96.3580 -0.0001 -28.2136 -0.0000 -9.0729 -9.5979 -10.6047 0.0000 0.0000 0.0000 0.0000 0.0000 0.0000 20.4065 -17.5897 -7.2616 -31.5907 35.5539 97.5174 -0.0001 25.7918 0.0000 -10.1312 6.5042 8.1920 -0.0000 -0.0000 -0.0000 -0.0000 -0.0000 -0.0000
 -88.9547 34.6527 -6.5718 43.3336 82.0987 -46.8720 1.3803 7.3961 8.1156 12.9816 -0.0000 0.0000 -12.3630 -5.4468 6.7992 -13.0227 -0.0000 -0.0000 0.9272 -2.6195 -4.8476 7.9519 -0.0000 0.0000 -17.5842 -3.0103 16.5010 -9.3028 -0.0000 -0.0000 -2.9417 2.0621 0.8894 10.1710 -2.3725 0.1719 -7.5504 17.3182 1.4490 -14.5689 -5.4397 -2.8524 21.4951 26.4257 7.4205 -11.7111 -10.0708 -95.7420 -0.0001 -28.7521 -0.0000 -8.2950 -9.1852 -10.2903 0.0000 0.0000 0.0000 0.0000 0.0000 0.0000 20.1272 -17.3181 -7.4579 -31.6835 37.1838 97.8316 -0.0001 27.2051 0.0000 -7.6386 6.0274 8.3029 -0.0000 -0.0000 0.0000 -0.0000 -0.0000 0.0000
 -88.7686 34.6094 -6.6589 43.3544 81.9225 -46.8888 1.6763 6.8531 7.8607 13.0340 -0.0000 0.0000 -12.6613 -4.7257 6.9540 -12.9440 0.0000 -0.0000 1.1476 -2.4065 -5.0220 7.8030 -0.0000 0.0000 -17.5493 -2.9799 16.3401 -8.8998 0.0000 0.0000 -3.0328 2.2033 0.9394 10.3300 -2.2401 0.1306 -7.3244 17.3642 1.3474 -14.9151 -5.4358 -2.8666 21.6642 26.4827 7.2701 -11.5554 -10.2824 -95.1205 -0.0001 -29.2483 -0.0000 -7.5407 -8.9125 -10.0575 -0.0000 0.0000 0.0000 -0.0000 0.0000 0.0000 19.9070 -17.2871 -7.6507 -32.1425 39.3273 98.0862 -0.0001 28.5131 0.0000 -7.4777 5.5643 7.5515 -0.0000 0.0000 -0.0000 -0.0000 0.0000 -0.0000
 -88.5807 34.5660 -6.7423 43.8386 81.8359 -47.3429 1.9669 6.3532 7.6061 13.0604 0.0000 -0.0000 -12.8735 -4.1611 7.1025 -12.9520 0.0000 -0.0000 1.3858 -2.2093 -5.2046 7.7054 0.0000 0.0000 -17.5313 -3.0717 16.1605 -8.9793 0.0000 -0.0000 -3.1169 2.3014 0.9631 10.5180 -2.1597 0.0648 -7.0511 17.4252 1.2670 -15.3630 -5.4587 -2.8873 21.7703 26.5286 7.1771 -11.3920 -10.4625 -94.4500 -0.0001 -29.7634 -0.0000 -6.5246 -8.7002 -9.8268 0.0000 0.0000 -0.0000 0.0000 0.0000 -0.0000 19.7825 -17.2589 -7.7547 -32.6398 41.2875 98.1569 -0.0001 29.7632 0.0000 -7.2178 5.2129 6.8194 -0.0000 0.0000 0.0000 -0.0000 0.0000 0.0000
 -88.3910 34.5190 -6.8254 44.6434 81.7969 -48.0964 2.2391 5.9358 7.3531 13.0740 -0.0000 0.0000 -13.0569 -3.7432 7.2071 -12.9351 -0.0000 -0.0000 1.6026 -2.0813 -5.3971 7.6956 0.0000 -0.0000 -17.6229 -3.2479 16.0055 -9.0293 -0.0000 -0.0000 -3.1939 2.3780 0.9443 10.7070 -2.0966 0.0029 -6.8087 17.5018 1.2603 -15.7712 -5.4991 -2.9540 21.8223 26.5752 7.1565 -11.2278 -10.6097 -93.7771 -0.0001 -30.2773 -0.0000 -5.2174 -8.5121 -9.5582 -0.0000 0.0000 -0.0000 -0.0000 0.0000 -0.0000 19.6225 -17.2927 -7.7992 -33.2314 44.5262 98.0863 -0.0001 30.5532 0.0000 -6.9544 7.4601 4.2724 0.0000 0.0000 0.0000 0.0000 0.0000 0.0000
